<?xml version="1.0" encoding="utf-8"?>
<!-- Generator: Adobe Illustrator 16.0.0, SVG Export Plug-In . SVG Version: 6.00 Build 0)  -->
<!DOCTYPE svg PUBLIC "-//W3C//DTD SVG 1.1//EN" "http://www.w3.org/Graphics/SVG/1.1/DTD/svg11.dtd">
<svg version="1.1" id="Layer_1" xmlns="http://www.w3.org/2000/svg" xmlns:xlink="http://www.w3.org/1999/xlink" x="0px" y="0px"
	 width="212.526px" height="39.968px" viewBox="543.92 102.289 212.526 39.968"
	 enable-background="new 543.92 102.289 212.526 39.968" xml:space="preserve">
<g>
	<g>
		<g>
			<g>
				<path fill="#FF3D7F" d="M573.628,102.289c-0.449,0-0.817,0.368-0.817,0.817v36.608c0,0.449,0.368,0.816,0.817,0.816h7.717
					c0.449,0,0.817-0.367,0.817-0.816v-36.608c0-0.449-0.368-0.817-0.817-0.817H573.628z M578.857,138.33
					c-1.113,0-2.26-1.056-2.26-2.169s1.072-2.39,2.186-2.39c1.113,0,2.309,1.156,2.309,2.27S579.971,138.33,578.857,138.33z"/>
			</g>
		</g>
		<g>
			<path fill="#FF9E9D" d="M569.176,103.881c-0.174-0.414-0.657-0.612-1.072-0.44l-7.202,2.982
				c-0.416,0.172-0.612,0.651-0.438,1.065l14.252,33.786c0.175,0.414,0.657,0.611,1.073,0.439l7.201-2.982
				c0.416-0.172,0.612-0.651,0.438-1.065L569.176,103.881z M578.802,138.058c-1.114,0-2.017-0.903-2.017-2.017
				s0.903-2.017,2.017-2.017c1.113,0,2.016,0.903,2.016,2.017S579.916,138.058,578.802,138.058z"/>
		</g>
		<g>
			<path fill="#DAD8A7" d="M557.525,109.731c-0.322-0.313-0.842-0.307-1.156,0.014l-5.444,5.579
				c-0.314,0.321-0.308,0.842,0.014,1.156l26.172,25.545c0.321,0.313,0.841,0.308,1.155-0.015l5.444-5.578
				c0.314-0.321,0.308-0.842-0.014-1.155L557.525,109.731z M578.802,138.058c-1.114,0-2.017-0.903-2.017-2.017
				s0.903-2.017,2.017-2.017c1.113,0,2.016,0.903,2.016,2.017S579.916,138.058,578.802,138.058z"/>
		</g>
		<g>
			<path fill="#7FC7AF" d="M549.264,119.233c-0.418-0.166-0.898,0.04-1.066,0.457l-2.924,7.226
				c-0.169,0.417,0.035,0.893,0.453,1.059l33.95,13.423c0.418,0.165,0.898-0.04,1.066-0.457l2.924-7.226
				c0.169-0.417-0.035-0.893-0.453-1.059L549.264,119.233z M578.802,138.058c-1.114,0-2.017-0.903-2.017-2.017
				s0.903-2.017,2.017-2.017c1.113,0,2.016,0.903,2.016,2.017S579.916,138.058,578.802,138.058z"/>
		</g>
		<g>
			<g>
				<path fill="#3FB8AF" d="M544.737,131.259c-0.449,0-0.817,0.367-0.817,0.816v7.717c0,0.45,0.368,0.817,0.817,0.817h36.608
					c0.449,0,0.817-0.367,0.817-0.817v-7.717c0-0.449-0.368-0.816-0.817-0.816H544.737z M578.802,138.058
					c-1.114,0-2.017-0.903-2.017-2.017s0.903-2.017,2.017-2.017c1.113,0,2.016,0.903,2.016,2.017S579.916,138.058,578.802,138.058z"
					/>
			</g>
		</g>
		<path fill="#309187" d="M576.922,136.197c0-1.113,0.903-2.017,2.017-2.017c0.605,0,1.147,0.269,1.517,0.691
			c-0.369-0.527-0.98-0.873-1.673-0.873c-1.128,0-2.042,0.914-2.042,2.042c0,0.692,0.345,1.303,0.872,1.672
			C577.19,137.344,576.922,136.802,576.922,136.197z"/>
	</g>
	<g id="MOBILEUI_2_">
		<path fill="#FFFFFF" d="M621.021,138.205v-26.883l-12.26,20.972h-1.401l-12.26-20.972v26.883h-2.233v-31.087h2.233l12.96,22.243
			l12.96-22.243h2.233v31.087H621.021z"/>
		<path fill="#FFFFFF" d="M638.36,138.644c-1.606,0-3.087-0.314-4.444-0.941c-1.357-0.628-2.533-1.481-3.524-2.562
			c-0.993-1.08-1.767-2.335-2.321-3.766c-0.555-1.43-0.832-2.934-0.832-4.51c0-1.605,0.285-3.124,0.854-4.554
			c0.569-1.43,1.35-2.686,2.343-3.766c0.992-1.079,2.167-1.934,3.524-2.561s2.824-0.941,4.4-0.941s3.036,0.314,4.378,0.941
			c1.342,0.627,2.518,1.481,3.525,2.561c1.007,1.08,1.795,2.336,2.364,3.766c0.569,1.43,0.854,2.948,0.854,4.554
			c0,1.576-0.285,3.08-0.854,4.51c-0.569,1.431-1.351,2.686-2.343,3.766s-2.167,1.934-3.524,2.562
			C641.403,138.329,639.936,138.644,638.36,138.644z M629.428,126.953c0,1.343,0.233,2.604,0.701,3.787
			c0.466,1.182,1.101,2.211,1.904,3.087c0.802,0.875,1.744,1.569,2.824,2.079c1.079,0.512,2.233,0.767,3.459,0.767
			s2.378-0.255,3.459-0.767c1.08-0.51,2.028-1.218,2.846-2.123c0.817-0.904,1.459-1.948,1.927-3.131
			c0.466-1.182,0.7-2.458,0.7-3.831c0-1.342-0.234-2.605-0.7-3.787c-0.467-1.182-1.109-2.218-1.927-3.109
			c-0.817-0.89-1.759-1.598-2.824-2.124c-1.066-0.525-2.211-0.788-3.437-0.788s-2.38,0.263-3.459,0.788
			c-1.08,0.525-2.022,1.241-2.824,2.146c-0.803,0.905-1.445,1.963-1.926,3.174C629.668,124.333,629.428,125.61,629.428,126.953z"/>
		<path fill="#FFFFFF" d="M663.755,138.644c-1.781,0-3.444-0.467-4.991-1.401c-1.548-0.934-2.759-2.13-3.635-3.591v4.554h-2.014
			v-31.963h2.189v14.143c1.079-1.576,2.356-2.86,3.831-3.853c1.474-0.992,3.174-1.488,5.101-1.488c1.604,0,3.058,0.343,4.356,1.029
			c1.299,0.687,2.394,1.591,3.284,2.714c0.89,1.124,1.576,2.394,2.058,3.81c0.481,1.417,0.723,2.853,0.723,4.313
			c0,1.576-0.277,3.072-0.832,4.487c-0.555,1.417-1.321,2.657-2.299,3.723s-2.131,1.919-3.459,2.561
			S665.302,138.644,663.755,138.644z M663.316,136.673c1.343,0,2.568-0.276,3.679-0.832c1.108-0.554,2.064-1.291,2.867-2.211
			s1.43-1.963,1.883-3.131c0.453-1.167,0.679-2.364,0.679-3.59c0-1.284-0.212-2.518-0.635-3.7c-0.424-1.182-1.022-2.233-1.795-3.152
			c-0.773-0.919-1.693-1.656-2.759-2.211c-1.065-0.554-2.24-0.832-3.524-0.832c-0.964,0-1.868,0.168-2.715,0.503
			c-0.847,0.336-1.627,0.781-2.343,1.335c-0.715,0.555-1.356,1.197-1.926,1.926c-0.569,0.73-1.044,1.489-1.423,2.277v7.531
			c0.087,0.847,0.408,1.642,0.963,2.387c0.554,0.744,1.219,1.386,1.992,1.926c0.773,0.541,1.612,0.971,2.518,1.292
			C661.682,136.513,662.528,136.673,663.316,136.673z"/>
		<path fill="#FFFFFF" d="M678.291,110.271v-4.028h2.189v4.028H678.291z M678.291,138.205v-22.768h2.189v22.768H678.291z"/>
		<path fill="#FFFFFF" d="M685.909,106.242h2.232v27.453c0,0.848,0.241,1.519,0.723,2.015s1.146,0.744,1.992,0.744
			c0.321,0,0.707-0.036,1.16-0.109c0.452-0.072,0.868-0.182,1.248-0.328l0.438,1.751c-0.496,0.205-1.109,0.372-1.839,0.504
			c-0.729,0.131-1.357,0.196-1.882,0.196c-1.227,0-2.212-0.372-2.956-1.116s-1.116-1.744-1.116-2.999V106.242L685.909,106.242z"/>
		<path fill="#FFFFFF" d="M705.13,138.644c-1.605,0-3.095-0.314-4.466-0.941c-1.372-0.628-2.562-1.489-3.568-2.584
			c-1.007-1.094-1.795-2.356-2.364-3.787c-0.569-1.43-0.854-2.962-0.854-4.598c0-1.604,0.285-3.115,0.854-4.532
			c0.568-1.415,1.35-2.656,2.342-3.722c0.992-1.065,2.168-1.904,3.525-2.517c1.357-0.613,2.823-0.919,4.4-0.919
			c1.604,0,3.094,0.314,4.466,0.941s2.554,1.474,3.547,2.539c0.991,1.066,1.766,2.306,2.32,3.722
			c0.554,1.416,0.832,2.912,0.832,4.488c0,0.146,0,0.328,0,0.548c0,0.219-0.016,0.357-0.044,0.416h-19.966
			c0.088,1.313,0.394,2.532,0.919,3.655c0.525,1.125,1.189,2.096,1.992,2.912c0.803,0.817,1.729,1.46,2.781,1.927
			c1.051,0.467,2.174,0.7,3.371,0.7c0.788,0,1.561-0.109,2.32-0.328c0.759-0.219,1.467-0.519,2.124-0.898
			c0.656-0.378,1.24-0.838,1.751-1.379c0.511-0.539,0.912-1.131,1.204-1.772l1.927,0.524c-0.322,0.818-0.796,1.57-1.423,2.256
			c-0.628,0.686-1.357,1.277-2.189,1.772c-0.832,0.497-1.745,0.884-2.737,1.161S706.181,138.644,705.13,138.644z M714.062,125.945
			c-0.088-1.342-0.388-2.568-0.897-3.678c-0.512-1.109-1.168-2.065-1.971-2.868c-0.804-0.802-1.729-1.43-2.78-1.882
			c-1.052-0.453-2.175-0.679-3.372-0.679c-1.196,0-2.32,0.227-3.371,0.679c-1.051,0.453-1.978,1.08-2.78,1.882
			c-0.804,0.803-1.445,1.767-1.927,2.89c-0.481,1.124-0.766,2.342-0.854,3.656H714.062z"/>
		<path fill="#FFFFFF" d="M732.32,133.082c1.43,0,2.634-0.291,3.612-0.875c0.978-0.584,1.766-1.343,2.364-2.277
			c0.598-0.934,1.021-2.006,1.27-3.218c0.248-1.211,0.372-2.459,0.372-3.744v-15.85h5.999v15.85c0,2.131-0.256,4.13-0.767,5.999
			s-1.313,3.503-2.408,4.904c-1.095,1.4-2.503,2.511-4.225,3.327c-1.724,0.817-3.781,1.227-6.174,1.227
			c-2.481,0-4.591-0.431-6.327-1.292c-1.737-0.861-3.146-1.999-4.226-3.415s-1.86-3.058-2.343-4.926
			c-0.481-1.868-0.722-3.81-0.722-5.824v-15.85h6.042v15.85c0,1.313,0.124,2.577,0.372,3.788c0.248,1.212,0.671,2.284,1.27,3.218
			c0.598,0.935,1.379,1.686,2.343,2.255S730.919,133.082,732.32,133.082z"/>
		<path fill="#FFFFFF" d="M750.403,138.205v-31.087h6.043v31.087H750.403z"/>
	</g>
</g>
</svg>
